LG_Sit_Stand_Walk08																		
version=1																		
nRows=64																		
nColumns=19																		
inDegrees=yes																		
endheader																		
time	ground_force2_vx	ground_force2_vy	ground_force2_vz	ground_force2_px	ground_force2_py	ground_force2_pz	ground_torque2_x	ground_torque2_y	ground_torque2_z	ground_force1_vx	ground_force1_vy	ground_force1_vz	ground_force1_px	ground_force1_py	ground_force1_pz	ground_torque1_x	ground_torque1_y	ground_torque1_z
1.99	0.937769	100.533569	-5.396236	0.210747	0	-0.35727	0	0.386326	1.00E-06	0	0	0	-0.13	0	0.305	0	0	0
1.991	1.491385	100.537445	-5.396236	0.210747	0	-0.35727	0	0.406821	1.00E-06	0	0	0	-0.13	0	0.305	0	0	0
1.992	1.491385	101.044281	-5.004585	0.210277	0	-0.35727	1.00E-06	0.470708	1.00E-06	0	0	0	-0.13	0	0.305	0	0	0
1.993	1.491385	100.537445	-5.004585	0.210277	0	-0.35912	1.00E-06	0.470708	0	0	0	0	-0.13	0	0.305	0	0	0
1.994	1.255667	100.024406	-5.004545	0.210277	0	-0.359592	2.00E-06	0.470708	0	0	0	0	-0.13	0	0.305	0	0	0
1.995	1.255667	100.024406	-5.004545	0.21172	0	-0.36008	2.00E-06	0.422339	2.00E-06	0	0	0	-0.13	0	0.305	0	0	0
1.996	1.490664	100.192192	-5.004383	0.211617	0	-0.36008	2.00E-06	0.374431	2.00E-06	0	0	0	-0.13	0	0.305	0	0	0
1.997	1.490664	100.192192	-5.004545	0.211617	0	-0.358848	1.00E-06	0.405683	1.00E-06	0	0	0	-0.13	0	0.305	0	0	0
1.998	1.724937	98.989532	-5.082956	0.210356	0	-0.358328	1.00E-06	0.405683	1.00E-06	0	0	0	-0.13	0	0.305	0	0	0
1.999	1.488499	98.989532	-5.239534	0.210356	0	-0.356158	2.00E-06	0.556078	1.00E-06	0	0	0	-0.13	0	0.305	0	0	0
2	1.488499	98.814423	-5.318069	0.210017	0	-0.356158	2.00E-06	0.556078	1.00E-06	0	0	0	-0.13	0	0.305	0	0	0
2.001	1.488499	98.79821	-5.318069	0.211185	0	-0.356266	2.00E-06	0.475751	1.00E-06	0	0	0	-0.13	0	0.305	0	0	0
2.002	2.271338	98.79821	-5.239658	0.212037	0	-0.356927	3.00E-06	0.468977	1.00E-06	0	0	0	-0.13	0	0.305	0	0	0
2.003	2.42704	98.478836	-5.082754	0.212037	0	-0.356266	3.00E-06	0.475751	1.00E-06	0	0	0	-0.13	0	0.305	0	0	0
2.004	2.271338	98.30835	-5.082754	0.212037	0	-0.356927	3.00E-06	0.524647	2.00E-06	0	0	0	-0.13	0	0.305	0	0	0
2.005	2.03562	98.30835	-5.161446	0.21049	0	-0.357268	2.00E-06	0.527387	2.00E-06	0	0	0	-0.13	0	0.305	0	0	0
2.006	2.03562	99.509117	-5.161446	0.210016	0	-0.357268	2.00E-06	0.527387	1.00E-06	0	0	0	-0.13	0	0.305	0	0	0
2.007	2.11347	99.509117	-4.926136	0.210016	0	-0.35538	2.00E-06	0.483962	1.00E-06	0	0	0	-0.13	0	0.305	0	0	0
2.008	2.11347	98.483078	-4.926136	0.211853	0	-0.35538	2.00E-06	0.483962	1.00E-06	0	0	0	-0.13	0	0.305	0	0	0
2.009	2.192766	98.295624	-5.004423	0.211853	0	-0.356483	3.00E-06	0.524017	1.00E-06	0	0	0	-0.13	0	0.305	0	0	0
2.01	2.192766	98.295624	-5.083036	0.211853	0	-0.356483	2.00E-06	0.52907	1.00E-06	0	0	0	-0.13	0	0.305	0	0	0
2.011	2.504169	98.305283	-5.083036	0.211082	0	-0.356483	1.00E-06	0.524017	1.00E-06	0	0	0	-0.13	0	0.305	0	0	0
2.012	2.739887	99.156944	-5.318029	0.211276	0	-0.357232	1.00E-06	0.520712	1.00E-06	0	0	0	-0.13	0	0.305	0	0	0
2.013	2.896311	100.192223	-5.396317	0.211276	0	-0.357232	1.00E-06	0.520712	1.00E-06	0	0	0	-0.13	0	0.305	0	0	0
2.014	2.896311	99.156944	-5.47477	0.211276	0	-0.357325	1.00E-06	0.606156	1.00E-06	0	0	0	-0.13	0	0.305	0	0	0
2.015	2.815575	99.156555	-5.47477	0.211218	0	-0.354828	1.00E-06	0.606156	0.00E+00	0	0	0	-0.13	0	0.305	0	0	0
2.016	2.815575	99.156555	-5.474648	0.211218	0	-0.354828	1.00E-06	0.593604	1.00E-06	0	0	0	-0.13	0	0.305	0	0	0
2.017	2.89559	100.374298	-5.318148	0.211735	0	-0.354198	1.00E-06	0.580625	0.00E+00	0	0	0	-0.13	0	0.305	0	0	0
2.018	2.89559	100.374298	-5.396439	0.211735	0	-0.354198	2.00E-06	0.580625	1.00E-06	0	0	0	-0.13	0	0.305	0	0	0
2.019	2.89559	100.374298	-5.396439	0.212159	0	-0.354198	2.00E-06	0.579738	1.00E-06	0	0	0	-0.13	0	0.305	0	0	0
2.02	2.814129	99.507584	-5.553019	0.212368	0	-0.354544	2.00E-06	0.491475	1.00E-06	0	0	0	-0.13	0	0.305	0	0	0
2.021	3.12842	99.507584	-5.553019	0.213942	0	-0.354544	2.00E-06	0.491475	1.00E-06	0	0	0	-0.13	0	0.305	0	0	0
2.022	3.05057	99.507584	-5.318069	0.213942	0	-0.354544	1.00E-06	0.59378	1.00E-06	0	0	0	-0.13	0	0.305	0	0	0
2.023	3.05057	99.857025	-5.239777	0.213942	0	-0.356866	1.00E-06	0.615398	1.00E-06	0	0	0	-0.13	0	0.305	0	0	0
2.024	2.580576	100.199951	-5.239777	0.212654	0	-0.354266	1.00E-06	0.648942	1.00E-06	0	0	0	-0.13	0	0.305	0	0	0
2.025	2.580576	99.857025	-5.47485	0.21258	0	-0.354849	2.00E-06	0.648942	1.00E-06	0	0	0	-0.13	0	0.305	0	0	0
2.026	2.580576	100.199951	-5.47485	0.21258	0	-0.354849	2.00E-06	0.660218	1.00E-06	0	0	0	-0.13	0	0.305	0	0	0
2.027	2.581299	99.681923	-4.926334	0.21258	0	-0.354849	2.00E-06	0.642141	1.00E-06	0	0	0	-0.13	0	0.305	0	0	0
2.028	2.267731	100.703323	-4.926334	0.212928	0	-0.355024	3.00E-06	0.62996	1.00E-06	0	0	0	-0.13	0	0.305	0	0	0
2.029	2.267731	101.224396	-5.161486	0.212928	0	-0.356273	3.00E-06	0.62996	1.00E-06	0	0	0	-0.13	0	0.305	0	0	0
2.03	2.267731	101.394913	-5.552979	0.2101	0	-0.356273	3.00E-06	0.679375	1.00E-06	0	0	0	-0.13	0	0.305	0	0	0
2.031	2.112028	101.560791	-5.31827	0.2101	0	-0.354799	2.00E-06	0.704716	2.00E-06	0	0	0	-0.13	0	0.305	0	0	0
2.032	2.578411	101.560791	-5.31827	0.211427	0	-0.354799	2.00E-06	0.753578	2.00E-06	0	0	0	-0.13	0	0.305	0	0	0
2.033	2.345581	100.189148	-5.318108	0.211427	0	-0.355914	2.00E-06	0.753578	1.00E-06	0	0	0	-0.13	0	0.305	0	0	0
2.034	2.345581	100.016708	-5.318108	0.211427	0	-0.355998	2.00E-06	0.757133	1.00E-06	0	0	0	-0.13	0	0.305	0	0	0
2.035	1.562021	99.677292	-5.239817	0.211904	0	-0.355914	2.00E-06	0.757133	1.00E-06	0	0	0	-0.13	0	0.305	0	0	0
2.036	1.562021	100.016708	-5.47493	0.211904	0	-0.355882	3.00E-06	0.812212	1.00E-06	0	0	0	-0.13	0	0.305	0	0	0
2.037	1.562742	100.364273	-5.47489	0.211311	0	-0.354947	1.00E-06	0.82623	1.00E-06	0	0	0	-0.13	0	0.305	0	0	0
2.038	1.717724	100.364273	-5.47493	0.210034	0	-0.355882	2.00E-06	0.857707	1.00E-06	0	0	0	-0.13	0	0.305	0	0	0
2.039	1.873425	98.818672	-5.709963	0.210034	0	-0.355704	2.00E-06	0.857707	1.00E-06	0	0	0	-0.13	0	0.305	0	0	0
2.04	1.87631	97.087929	-5.709963	0.210275	0	-0.357999	2.00E-06	0.785676	1.00E-06	0	0	0	-0.13	0	0.305	0	0	0
2.041	1.87631	98.296402	-5.47485	0.210275	0	-0.356818	2.00E-06	0.785676	1.00E-06	0	0	0	-0.13	0	0.305	0	0	0
2.042	1.87631	98.296402	-5.47485	0.211047	0	-0.356818	2.00E-06	0.785676	2.00E-06	0	0	0	-0.13	0	0.305	0	0	0
2.043	2.186272	98.469604	-5.553261	0.209667	0	-0.35578	2.00E-06	0.809482	1.00E-06	0	0	0	-0.13	0	0.305	0	0	0
2.044	2.267008	98.469604	-5.553261	0.209589	0	-0.35578	3.00E-06	0.819856	2.00E-06	0	0	0	-0.13	0	0.305	0	0	0
2.045	2.656984	98.121666	-5.553059	0.209589	0	-0.353733	3.00E-06	0.848271	1.00E-06	0	0	0	-0.13	0	0.305	0	0	0
2.046	2.736279	98.121666	-5.553059	0.211612	0	-0.355244	3.00E-06	0.819856	1.00E-06	0	0	0	-0.13	0	0.305	0	0	0
2.047	2.736279	97.615616	-5.553059	0.211612	0	-0.355226	3.00E-06	0.848271	1.00E-06	0	0	0	-0.13	0	0.305	0	0	0
2.048	2.736279	97.267685	-5.631632	0.211728	0	-0.355226	0.00E+00	0.883781	1.00E-06	0	0	0	-0.13	0	0.305	0	0	0
2.049	2.652655	97.267685	-5.318228	0.2103	0	-0.355226	1.00E-06	0.902674	1.00E-06	0	0	0	-0.13	0	0.305	0	0	0
2.05	3.04624	97.435501	-5.631672	0.208572	0	-0.353617	1.00E-06	0.912541	1.00E-06	0	0	0	-0.13	0	0.305	0	0	0
2.051	3.04624	97.608665	-5.396641	0.208572	0	-0.353617	1.00E-06	0.927804	1.00E-06	0	0	0	-0.13	0	0.305	0	0	0
2.052	3.04624	98.822556	-5.866703	0.208572	0	-0.353617	1.00E-06	0.912541	1.00E-06	0	0	0	-0.13	0	0.305	0	0	0
2.053	3.279793	98.822556	-5.709923	0.210803	0	-0.354795	0	0.862389	1.00E-06	0	0	0	-0.13	0	0.305	0	0	0
